<svg xmlns="http://www.w3.org/2000/svg" width="600" height="400" viewBox="0 0 600 400"><rect width="100%" height="100%" fill="#DDDDDD"/><path fill="#999999" d="M205.02 115.15h-32.1v20.05h25.3v10.35h-25.3V166h32.1v10.75h-45.6v-72.3h45.6zm10.1-12.7h12.35v74.3h-12.35zm24.85 0h12.35v74.3h-12.35zm25.1 23h12.4v51.3h-12.4zm14.1-14.95q0 1.6-.65 3t-1.72 2.45q-1.08 1.05-2.53 1.67-1.45.63-3.1.63-1.6 0-3.02-.63-1.43-.62-2.48-1.67T264 113.5q-.63-1.4-.63-3 0-1.65.63-3.1.62-1.45 1.67-2.5t2.48-1.68q1.42-.62 3.02-.62 1.65 0 3.1.62 1.45.63 2.53 1.68 1.07 1.05 1.72 2.5t.65 3.1m33.6 14.15q5.7 0 10.38 1.85 4.67 1.85 8 5.25 3.32 3.4 5.12 8.3t1.8 10.95q0 6.1-1.8 11t-5.12 8.35q-3.33 3.45-8 5.3-4.68 1.85-10.38 1.85-5.75 0-10.45-1.85t-8.02-5.3q-3.33-3.45-5.15-8.35-1.83-4.9-1.83-11 0-6.05 1.83-10.95 1.82-4.9 5.15-8.3 3.32-3.4 8.02-5.25t10.45-1.85m0 43.35q6.4 0 9.48-4.3 3.07-4.3 3.07-12.6t-3.07-12.65q-3.08-4.35-9.48-4.35-6.5 0-9.62 4.38-3.13 4.37-3.13 12.62t3.13 12.57q3.12 4.33 9.62 4.33m51.86 9.55q-6.7 0-10.28-3.78-3.57-3.77-3.57-10.42V134.7h-5.25q-1 0-1.71-.65-.69-.65-.69-1.95v-4.9l8.25-1.35 2.59-14q.25-1 .96-1.55.7-.55 1.79-.55h6.41v16.15h13.7v8.8h-13.7v27.8q0 2.4 1.17 3.75t3.22 1.35q1.16 0 1.93-.28.77-.27 1.35-.57t1.03-.58q.44-.27.89-.27.55 0 .91.27.35.28.75.83l3.7 6q-2.7 2.25-6.2 3.4t-7.25 1.15m19.2-73.1h10.75v14.4l-1.1 7.8q-.4 2.2-1.3 3.37-.9 1.18-3 1.18-1.85 0-2.85-1.18-1-1.17-1.4-3.37l-1.1-7.8zM439.98 131l-2.8 4.45q-.5.8-1.05 1.12-.55.33-1.4.33-.9 0-1.93-.5-1.02-.5-2.37-1.13-1.35-.62-3.08-1.12-1.72-.5-4.07-.5-3.65 0-5.73 1.55-2.07 1.55-2.07 4.05 0 1.65 1.07 2.77 1.08 1.13 2.85 1.98 1.78.85 4.03 1.52 2.25.68 4.57 1.48 2.33.8 4.58 1.82 2.25 1.03 4.02 2.6 1.78 1.58 2.85 3.78 1.08 2.2 1.08 5.3 0 3.7-1.33 6.82-1.32 3.13-3.92 5.4-2.6 2.28-6.43 3.55-3.82 1.28-8.82 1.28-2.65 0-5.18-.47-2.52-.48-4.85-1.33-2.32-.85-4.3-2-1.97-1.15-3.47-2.5l2.85-4.7q.55-.85 1.3-1.3t1.9-.45 2.17.65q1.03.65 2.38 1.4t3.17 1.4q1.83.65 4.63.65 2.2 0 3.77-.53 1.58-.52 2.6-1.37 1.03-.85 1.5-1.98.48-1.12.48-2.32 0-1.8-1.08-2.95-1.07-1.15-2.85-2-1.77-.85-4.05-1.53-2.27-.67-4.65-1.47-2.37-.8-4.65-1.88-2.27-1.07-4.05-2.72-1.77-1.65-2.85-4.05-1.07-2.4-1.07-5.8 0-3.15 1.25-6t3.67-4.98q2.43-2.12 6.05-3.4 3.63-1.27 8.38-1.27 5.3 0 9.65 1.75t7.25 4.6M141.45 258.85h8.4q3.8 0 6.62-.95 2.83-.95 4.65-2.62 1.83-1.68 2.73-3.98t.9-5.05q0-5.5-3.63-8.45-3.62-2.95-11.07-2.95h-8.6zm24.9 11.2 18.1 26.7H172.3q-3.45 0-5-2.7l-15.2-23.15q-.85-1.3-1.88-1.85-1.02-.55-3.02-.55h-5.75v28.25H128v-72.3h22.05q7.35 0 12.62 1.52 5.28 1.53 8.65 4.28 3.38 2.75 4.98 6.57 1.6 3.83 1.6 8.43 0 3.65-1.08 6.9-1.07 3.25-3.1 5.9-2.02 2.65-5 4.65-2.97 2-6.77 3.15 1.3.75 2.4 1.78 1.1 1.02 2 2.42m33.75-4.85h23.3q0-2.4-.68-4.53-.67-2.12-2.02-3.72t-3.43-2.53q-2.07-.92-4.82-.92-5.35 0-8.43 3.05-3.07 3.05-3.92 8.65m31.5 7.45h-31.75q.3 3.95 1.4 6.82 1.1 2.88 2.9 4.75 1.8 1.88 4.27 2.81 2.48.92 5.48.92t5.17-.7q2.18-.7 3.8-1.55 1.63-.85 2.85-1.55 1.23-.7 2.38-.7 1.55 0 2.3 1.15l3.55 4.5q-2.05 2.4-4.6 4.03-2.55 1.62-5.33 2.59-2.77.98-5.65 1.38-2.87.4-5.57.4-5.35 0-9.95-1.78-4.6-1.77-8-5.25-3.4-3.47-5.35-8.59-1.95-5.13-1.95-11.88 0-5.25 1.7-9.87 1.7-4.63 4.87-8.06 3.18-3.42 7.75-5.42 4.58-2 10.33-2 4.85 0 8.95 1.55t7.05 4.52q2.95 2.98 4.62 7.31 1.68 4.32 1.68 9.87 0 2.8-.6 3.77-.6.98-2.3.98M277.85 251l-2.8 4.45q-.5.8-1.05 1.12-.55.33-1.4.33-.9 0-1.93-.5-1.02-.5-2.37-1.12-1.35-.63-3.08-1.13-1.72-.5-4.07-.5-3.65 0-5.73 1.55-2.07 1.55-2.07 4.05 0 1.65 1.07 2.78 1.08 1.12 2.85 1.97 1.78.85 4.03 1.53 2.25.67 4.57 1.47 2.33.8 4.58 1.83 2.25 1.02 4.02 2.59 1.78 1.58 2.85 3.78 1.08 2.2 1.08 5.3 0 3.7-1.33 6.83-1.32 3.12-3.92 5.39-2.6 2.28-6.43 3.56-3.82 1.27-8.82 1.27-2.65 0-5.18-.47-2.52-.48-4.85-1.33-2.32-.85-4.3-2-1.97-1.15-3.47-2.5l2.85-4.7q.55-.85 1.3-1.3t1.9-.45 2.17.65q1.03.65 2.38 1.4t3.17 1.4q1.83.65 4.63.65 2.2 0 3.77-.52 1.58-.53 2.6-1.38 1.03-.85 1.5-1.97.48-1.13.48-2.33 0-1.8-1.08-2.95-1.07-1.15-2.85-2-1.77-.85-4.05-1.53-2.27-.67-4.65-1.47-2.37-.8-4.65-1.87-2.27-1.08-4.05-2.73-1.77-1.65-2.85-4.05-1.07-2.4-1.07-5.8 0-3.15 1.25-6t3.67-4.98q2.43-2.12 6.05-3.4 3.63-1.27 8.38-1.27 5.3 0 9.65 1.75t7.25 4.6m41.7-5.55h12.35v51.3h-7.55q-2.45 0-3.1-2.25l-.85-4.1q-3.15 3.2-6.95 5.18-3.8 1.97-8.95 1.97-4.2 0-7.43-1.42-3.22-1.43-5.42-4.03t-3.33-6.18q-1.12-3.57-1.12-7.87v-32.6h12.35v32.6q0 4.7 2.17 7.28 2.18 2.57 6.53 2.57 3.2 0 6-1.43 2.8-1.42 5.3-3.92zm36.9 51.3H344.1v-51.3h7.55q2.4 0 3.15 2.25l.8 3.8q1.35-1.5 2.82-2.75 1.48-1.25 3.15-2.15 1.68-.9 3.6-1.43 1.93-.52 4.23-.52 4.85 0 7.97 2.63 3.13 2.62 4.68 6.97 1.2-2.55 3-4.37 1.8-1.83 3.95-2.98t4.57-1.7q2.43-.55 4.88-.55 4.25 0 7.55 1.3t5.55 3.8 3.42 6.1q1.18 3.6 1.18 8.25v32.65H403.8V264.1q0-4.9-2.15-7.38-2.15-2.47-6.3-2.47-1.9 0-3.53.65-1.62.65-2.85 1.88-1.22 1.22-1.92 3.07t-.7 4.25v32.65h-12.4V264.1q0-5.15-2.08-7.5-2.07-2.35-6.07-2.35-2.7 0-5.03 1.32-2.32 1.33-4.32 3.63zm81.15-31.55h23.3q0-2.4-.68-4.53-.67-2.12-2.02-3.72t-3.43-2.53q-2.07-.92-4.82-.92-5.35 0-8.43 3.05-3.07 3.05-3.92 8.65m31.5 7.45h-31.75q.3 3.95 1.4 6.82 1.1 2.88 2.9 4.75 1.8 1.88 4.28 2.81 2.47.92 5.47.92t5.17-.7q2.18-.7 3.8-1.55 1.63-.85 2.85-1.55 1.23-.7 2.38-.7 1.55 0 2.3 1.15l3.55 4.5q-2.05 2.4-4.6 4.03-2.55 1.62-5.33 2.59-2.77.98-5.65 1.38-2.87.4-5.57.4-5.35 0-9.95-1.78-4.6-1.77-8-5.25-3.4-3.47-5.35-8.59-1.95-5.13-1.95-11.88 0-5.25 1.7-9.87 1.7-4.63 4.87-8.06 3.18-3.42 7.75-5.42 4.58-2 10.33-2 4.85 0 8.95 1.55t7.05 4.52q2.95 2.98 4.62 7.31 1.68 4.32 1.68 9.87 0 2.8-.6 3.77-.6.98-2.3.98"/></svg>