<svg xmlns="http://www.w3.org/2000/svg" width="242" height="348" viewBox="0 0 242 348"><rect width="100%" height="100%" fill="#DDDDDD"/><path fill="#999999" d="M82.06 139.205H68.9v8.22h10.38v4.25H68.9v8.38h13.16v4.41H63.37v-29.64h18.69zm4.15-5.2h5.06v30.46h-5.06zm10.18 0h5.07v30.46h-5.07zm10.3 9.43h5.08v21.03h-5.08zm5.78-6.13q0 .65-.27 1.23-.27.57-.71 1t-1.03.69q-.6.26-1.27.26-.66 0-1.24-.26-.59-.26-1.02-.69t-.69-1q-.25-.58-.25-1.23 0-.68.25-1.27.26-.6.69-1.03t1.02-.69q.58-.25 1.24-.25.67 0 1.27.25.59.26 1.03.69t.71 1.03q.27.59.27 1.27m13.77 5.8q2.34 0 4.26.76 1.91.76 3.28 2.15 1.36 1.39 2.1 3.4t.74 4.49q0 2.5-.74 4.51t-2.1 3.43q-1.37 1.41-3.28 2.17-1.92.76-4.26.76-2.36 0-4.28-.76-1.93-.76-3.29-2.17-1.37-1.42-2.11-3.43-.75-2.01-.75-4.51 0-2.48.75-4.49.74-2.01 2.11-3.4 1.36-1.39 3.29-2.15 1.92-.76 4.28-.76m0 17.77q2.63 0 3.89-1.76t1.26-5.17q0-3.4-1.26-5.18-1.26-1.79-3.89-1.79-2.66 0-3.94 1.8-1.29 1.79-1.29 5.17 0 3.39 1.29 5.16 1.28 1.77 3.94 1.77m21.26 3.92q-2.75 0-4.21-1.55-1.47-1.55-1.47-4.27v-11.75h-2.15q-.41 0-.7-.27-.28-.26-.28-.8v-2.01l3.38-.55 1.06-5.74q.11-.41.39-.63.29-.23.74-.23h2.63v6.62h5.61v3.61h-5.61v11.4q0 .98.48 1.53.48.56 1.32.56.47 0 .79-.11.32-.12.55-.24.24-.12.42-.24.19-.11.37-.11.23 0 .37.11.14.12.31.34l1.52 2.46q-1.11.93-2.55 1.4-1.43.47-2.97.47m7.87-29.97h4.41v5.9l-.45 3.2q-.16.9-.53 1.38t-1.23.48q-.76 0-1.17-.48t-.58-1.38l-.45-3.2zm23.02 10.88-1.14 1.83q-.21.32-.43.46-.23.13-.58.13-.37 0-.79-.2-.42-.21-.97-.46-.55-.26-1.26-.47-.71-.2-1.67-.2-1.5 0-2.35.63-.85.64-.85 1.66 0 .68.44 1.14t1.17.81 1.65.63q.92.27 1.87.6.96.33 1.88.75t1.65 1.07q.73.64 1.17 1.54.44.91.44 2.18 0 1.51-.54 2.8-.55 1.28-1.61 2.21-1.07.93-2.64 1.46-1.57.52-3.62.52-1.08 0-2.12-.2-1.03-.19-1.99-.54-.95-.35-1.76-.82t-1.42-1.02l1.17-1.93q.22-.35.53-.53.31-.19.78-.19t.89.27q.42.26.97.57.56.31 1.3.57.75.27 1.9.27.9 0 1.55-.21.64-.22 1.06-.57t.62-.81q.19-.46.19-.95 0-.74-.44-1.21t-1.16-.82q-.73-.35-1.67-.63-.93-.27-1.9-.6-.98-.33-1.91-.77t-1.66-1.12q-.73-.67-1.17-1.66-.44-.98-.44-2.37 0-1.3.51-2.46.52-1.17 1.51-2.04 1-.88 2.48-1.4 1.49-.52 3.44-.52 2.17 0 3.95.72 1.79.71 2.97 1.88M56 198.125h3.44q1.56 0 2.72-.39t1.91-1.07q.74-.69 1.11-1.63.37-.95.37-2.07 0-2.26-1.48-3.47-1.49-1.21-4.55-1.21H56zm10.21 4.59 7.42 10.95h-4.98q-1.42 0-2.05-1.11l-6.23-9.49q-.35-.53-.77-.76-.42-.22-1.24-.22H56v11.58h-5.52v-29.64h9.04q3.02 0 5.18.62 2.16.63 3.55 1.76 1.38 1.12 2.04 2.69.65 1.57.65 3.46 0 1.49-.44 2.82-.44 1.34-1.27 2.42-.83 1.09-2.05 1.91t-2.78 1.29q.54.31.99.73t.82.99m13.84-1.99h9.55q0-.98-.28-1.85t-.83-1.53q-.55-.65-1.4-1.03t-1.98-.38q-2.19 0-3.46 1.25-1.26 1.25-1.6 3.54m12.91 3.06H79.94q.13 1.62.58 2.8t1.19 1.94q.73.77 1.75 1.15 1.01.38 2.24.38t2.13-.29q.89-.28 1.55-.63.67-.35 1.17-.64.5-.28.98-.28.63 0 .94.47l1.45 1.84q-.84.99-1.88 1.65-1.05.67-2.19 1.07-1.13.4-2.31.56-1.18.17-2.29.17-2.19 0-4.08-.73-1.88-.73-3.28-2.15-1.39-1.43-2.19-3.53t-.8-4.87q0-2.15.7-4.05.69-1.89 2-3.3 1.3-1.4 3.17-2.22 1.88-.82 4.24-.82 1.98 0 3.67.63 1.68.64 2.89 1.86t1.89 2.99q.69 1.78.69 4.05 0 1.15-.25 1.55-.24.4-.94.4m18.96-8.88-1.14 1.83q-.21.32-.44.46-.22.13-.57.13-.37 0-.79-.2-.42-.21-.97-.46-.56-.26-1.26-.47-.71-.2-1.67-.2-1.5 0-2.35.63-.85.64-.85 1.67 0 .67.44 1.13t1.17.81q.72.35 1.65.63.92.27 1.87.6.96.33 1.88.75t1.65 1.07q.73.64 1.17 1.54.44.91.44 2.18 0 1.51-.54 2.8-.55 1.28-1.61 2.21-1.07.93-2.64 1.46-1.57.52-3.62.52-1.08 0-2.12-.2-1.03-.19-1.99-.54-.95-.35-1.76-.82t-1.42-1.02l1.16-1.93q.23-.35.54-.54.3-.18.78-.18.47 0 .89.27.42.26.97.57t1.3.58q.75.26 1.9.26.9 0 1.55-.21.64-.22 1.06-.57t.62-.81q.19-.46.19-.95 0-.74-.44-1.21t-1.17-.82q-.72-.35-1.66-.63-.93-.27-1.9-.6-.98-.33-1.91-.77t-1.66-1.12q-.73-.67-1.17-1.66-.44-.98-.44-2.37 0-1.3.51-2.46.52-1.17 1.51-2.04.99-.88 2.48-1.4t3.43-.52q2.18 0 3.96.72 1.78.71 2.97 1.88m17.1-2.27h5.06v21.03h-3.09q-1.01 0-1.27-.92l-.35-1.68q-1.29 1.31-2.85 2.12t-3.67.81q-1.72 0-3.04-.59-1.33-.58-2.23-1.65-.9-1.06-1.36-2.53-.46-1.46-.46-3.23v-13.36h5.06v13.36q0 1.93.89 2.99.89 1.05 2.68 1.05 1.31 0 2.46-.58 1.15-.59 2.17-1.61zm15.13 21.03h-5.06v-21.03h3.09q.99 0 1.29.92l.33 1.56q.55-.62 1.16-1.13.6-.51 1.29-.88t1.48-.59q.79-.21 1.73-.21 1.99 0 3.27 1.08 1.28 1.07 1.92 2.86.49-1.05 1.23-1.8.73-.75 1.61-1.22.89-.47 1.88-.7.99-.22 2-.22 1.74 0 3.09.53 1.36.54 2.28 1.56.92 1.03 1.4 2.5.49 1.48.49 3.38v13.39h-5.07v-13.39q0-2.01-.88-3.02t-2.58-1.01q-.78 0-1.45.26-.66.27-1.17.77-.5.5-.78 1.26-.29.76-.29 1.74v13.39h-5.09v-13.39q0-2.11-.85-3.07t-2.49-.96q-1.1 0-2.06.54-.95.54-1.77 1.48zm33.27-12.94h9.55q0-.98-.27-1.85-.28-.87-.83-1.53-.56-.65-1.41-1.03t-1.98-.38q-2.19 0-3.45 1.25t-1.61 3.54m12.92 3.06h-13.02q.12 1.62.57 2.8t1.19 1.94q.74.77 1.75 1.15 1.02.38 2.25.38t2.12-.29q.89-.28 1.56-.63.66-.35 1.17-.64.5-.28.97-.28.64 0 .94.47l1.46 1.84q-.84.99-1.89 1.65-1.04.67-2.18 1.07t-2.32.56q-1.18.17-2.28.17-2.2 0-4.08-.73-1.89-.73-3.28-2.15-1.4-1.43-2.2-3.53t-.8-4.87q0-2.15.7-4.05.7-1.89 2-3.3 1.3-1.4 3.18-2.22 1.87-.82 4.23-.82 1.99 0 3.67.63 1.68.64 2.89 1.86t1.9 2.99q.68 1.78.68 4.05 0 1.15-.24 1.55-.25.4-.94.4"/></svg>